<svg width="116" height="29" viewBox="0 0 116 29" fill="none" xmlns="http://www.w3.org/2000/svg">
<path fill-rule="evenodd" clip-rule="evenodd" d="M2.94207 23.6026V3.42175C2.94032 3.38944 2.94816 3.35735 2.96456 3.32969C2.98096 3.30204 3.00515 3.28013 3.03394 3.26685C3.06273 3.25358 3.09478 3.24955 3.12584 3.2553C3.15691 3.26106 3.18555 3.27633 3.20798 3.2991L14.1768 14.5624C15.5496 15.9047 17.7001 13.9185 16.2243 12.3854L4.70041 0.621262C2.62796 -0.945921 -0.0244983 0.667258 0.0037547 3.06232V23.9093C-0.0394558 24.8019 0.292932 25.5054 0.86464 26.1374C1.74547 27.1084 3.50713 27.4456 4.86826 26.2805L8.69073 22.3625C9.21923 21.8753 9.2641 20.8805 8.72064 20.2979C8.46235 20.0235 8.11488 19.8557 7.744 19.8262C7.37312 19.7967 7.00455 19.9076 6.70803 20.1378L3.22792 23.7151C3.20527 23.7392 3.17618 23.756 3.14429 23.7632C3.11241 23.7705 3.07913 23.768 3.04863 23.756C3.01813 23.744 2.99176 23.7231 2.9728 23.6958C2.95385 23.6685 2.94316 23.6361 2.94207 23.6026ZM20.4907 1.54624V23.6043C20.4917 23.6362 20.4835 23.6676 20.467 23.6946C20.4505 23.7216 20.4266 23.7429 20.3982 23.7559C20.3699 23.7689 20.3384 23.7729 20.3078 23.7675C20.2772 23.762 20.2488 23.7473 20.2264 23.7253L9.22435 12.4654C7.91142 11.1197 5.75421 13.1008 7.23002 14.6339L18.7307 26.4048C20.8031 27.972 23.4556 26.3588 23.4273 23.9638L23.4622 1.54624C23.414 -0.351417 20.7067 -0.625673 20.4907 1.54624Z" fill="white"/>
<path fill-rule="evenodd" clip-rule="evenodd" d="M81.9663 3.98283H77.6021V13.098H75.6659V3.98283L71.2917 3.99475V2.01192L81.9663 2V3.98283Z" fill="white"/>
<path fill-rule="evenodd" clip-rule="evenodd" d="M64.0075 5.96225L66.9624 2H69.3556L65.1958 7.5635L69.3274 13.098H66.9491L64.0075 9.16645L61.0825 13.098H58.6959L62.8225 7.5635L58.6826 2H61.0559L64.0075 5.96225Z" fill="white"/>
<path fill-rule="evenodd" clip-rule="evenodd" d="M56.7496 13.098H48.7856C48.4884 13.0925 48.1936 13.0437 47.9098 12.9532C47.5739 12.8514 47.262 12.6798 46.9935 12.4492C46.7251 12.2186 46.5057 11.9338 46.3492 11.6126C46.156 11.2087 46.0625 10.7625 46.0766 10.3129V3.00337C46.0759 2.86968 46.1007 2.73716 46.1498 2.61328C46.1972 2.49365 46.2672 2.38481 46.3558 2.29303C46.4434 2.20129 46.5479 2.12832 46.6633 2.07839C46.787 2.02793 46.9191 2.00248 47.0522 2.00344H56.7496V3.99478H48.0095V10.3214C47.997 10.4304 48.0089 10.5408 48.0443 10.6444C48.0797 10.7479 48.1376 10.8419 48.2137 10.919C48.2898 10.9962 48.3821 11.0546 48.4834 11.0898C48.5848 11.1249 48.6927 11.136 48.7989 11.122H56.7496V13.098Z" fill="white"/>
<path d="M54.8084 6.62659H49.9489V8.62474H54.8084V6.62659Z" fill="white"/>
<path fill-rule="evenodd" clip-rule="evenodd" d="M44.1355 12.2514C44.1366 12.388 44.1094 12.5233 44.0557 12.6483C44.0068 12.7666 43.9363 12.8741 43.848 12.9652C43.7588 13.0552 43.6532 13.1264 43.5372 13.1747C43.4172 13.2261 43.2883 13.2521 43.1583 13.2513C43.0349 13.2508 42.9127 13.2272 42.7976 13.1815C42.671 13.1363 42.557 13.0603 42.4653 12.9601L35.392 5.38988V13.098H33.4625V2.99993C33.4596 2.80257 33.5178 2.60935 33.6287 2.44801C33.7342 2.28532 33.883 2.15704 34.0575 2.07836C34.2357 2.0007 34.4328 1.9805 34.6225 2.02044C34.8129 2.05642 34.9874 2.15298 35.1211 2.2964L42.1944 9.86317V2H44.1355V12.2514Z" fill="white"/>
<path fill-rule="evenodd" clip-rule="evenodd" d="M115.074 4.02547H110.753V13.0981H108.797V4.02547H104.476V2.01879H115.082V4.02547H115.074ZM98.5808 4.02547L89.7376 4.01525V13.0879H87.7765V3.02043C87.7761 2.8848 87.8021 2.75045 87.8529 2.62522C87.9003 2.50406 87.9703 2.39354 88.059 2.29986C88.1486 2.20708 88.2554 2.13354 88.3731 2.08352C88.4971 2.03184 88.6298 2.00579 88.7637 2.00687L98.5808 2.01879V4.02547ZM96.5116 8.9655V6.95713H91.6521V8.95528L96.5116 8.9655ZM102.506 13.1084H100.555V2.01198H102.506V13.1084Z" fill="white"/>
<path d="M39.8469 25.0107H38.7043V23.4639H34.6877V25.0107H33.5452V21.8599C33.5452 21.3999 33.6243 20.9766 33.7825 20.5898C33.9407 20.2031 34.1604 19.8706 34.4417 19.5923C34.7229 19.314 35.0554 19.0972 35.4392 18.9419C35.823 18.7866 36.2419 18.709 36.696 18.709H39.2712C39.3503 18.709 39.425 18.7236 39.4954 18.7529C39.5657 18.7822 39.6272 18.8232 39.6799 18.876C39.7327 18.9287 39.7737 18.9902 39.803 19.0605C39.8323 19.1309 39.8469 19.2056 39.8469 19.2847V25.0107ZM34.6877 22.3213H38.7043V19.8516H36.696C36.6609 19.8516 36.5862 19.8574 36.4719 19.8691C36.3606 19.8779 36.2302 19.9028 36.0808 19.9438C35.9343 19.9849 35.7791 20.0479 35.615 20.1328C35.4509 20.2178 35.3 20.335 35.1624 20.4844C35.0247 20.6338 34.9104 20.8213 34.8196 21.0469C34.7317 21.2695 34.6877 21.5405 34.6877 21.8599V22.3213ZM47.721 25.0107H43.599C43.4935 25.0107 43.3792 24.999 43.2562 24.9756C43.1361 24.9492 43.016 24.9097 42.8958 24.8569C42.7787 24.8042 42.6659 24.7368 42.5575 24.6548C42.4491 24.5698 42.3524 24.4688 42.2674 24.3516C42.1854 24.2314 42.1195 24.0938 42.0697 23.9385C42.0199 23.7803 41.995 23.603 41.995 23.4067V20.313C41.995 20.2075 42.0067 20.0947 42.0301 19.9746C42.0565 19.8516 42.096 19.7314 42.1488 19.6143C42.2015 19.4941 42.2704 19.3799 42.3553 19.2715C42.4403 19.1631 42.5414 19.0679 42.6585 18.9858C42.7787 18.9009 42.9164 18.8335 43.0716 18.7837C43.2269 18.7339 43.4027 18.709 43.599 18.709H47.721V19.8516H43.599C43.4496 19.8516 43.3353 19.8911 43.2562 19.9702C43.1771 20.0493 43.1375 20.1665 43.1375 20.3218V23.4067C43.1375 23.5532 43.1771 23.6675 43.2562 23.7495C43.3382 23.8286 43.4525 23.8682 43.599 23.8682H47.721V25.0107ZM55.8852 25.0107H54.7426V23.4639H50.726V25.0107H49.5834V21.8599C49.5834 21.3999 49.6625 20.9766 49.8208 20.5898C49.979 20.2031 50.1987 19.8706 50.4799 19.5923C50.7612 19.314 51.0937 19.0972 51.4775 18.9419C51.8613 18.7866 52.2802 18.709 52.7343 18.709H55.3095C55.3886 18.709 55.4633 18.7236 55.5336 18.7529C55.604 18.7822 55.6655 18.8232 55.7182 18.876C55.7709 18.9287 55.812 18.9902 55.8413 19.0605C55.8706 19.1309 55.8852 19.2056 55.8852 19.2847V25.0107ZM50.726 22.3213H54.7426V19.8516H52.7343C52.6992 19.8516 52.6245 19.8574 52.5102 19.8691C52.3989 19.8779 52.2685 19.9028 52.1191 19.9438C51.9726 19.9849 51.8173 20.0479 51.6533 20.1328C51.4892 20.2178 51.3383 20.335 51.2006 20.4844C51.0629 20.6338 50.9487 20.8213 50.8579 21.0469C50.77 21.2695 50.726 21.5405 50.726 21.8599V22.3213ZM64.4053 22.374C64.4053 22.7578 64.3379 23.1108 64.2032 23.4331C64.0713 23.7554 63.8882 24.0337 63.6539 24.2681C63.4195 24.4995 63.1412 24.6812 62.8189 24.813C62.4966 24.9448 62.1465 25.0107 61.7686 25.0107H58.6836C58.6016 25.0107 58.5254 24.9961 58.4551 24.9668C58.3848 24.9375 58.3233 24.8979 58.2706 24.8481C58.2208 24.7954 58.1812 24.7339 58.1519 24.6636C58.1226 24.5933 58.108 24.5171 58.108 24.4351V19.2847C58.108 19.2056 58.1226 19.1309 58.1519 19.0605C58.1812 18.9902 58.2208 18.9287 58.2706 18.876C58.3233 18.8232 58.3848 18.7822 58.4551 18.7529C58.5254 18.7236 58.6016 18.709 58.6836 18.709H61.7686C62.1465 18.709 62.4966 18.7749 62.8189 18.9067C63.1412 19.0386 63.4195 19.2217 63.6539 19.4561C63.8882 19.6875 64.0713 19.9658 64.2032 20.291C64.3379 20.6133 64.4053 20.9648 64.4053 21.3457V22.374ZM63.2627 21.3457C63.2627 21.123 63.2261 20.9194 63.1529 20.7349C63.0826 20.5503 62.9815 20.3936 62.8497 20.2646C62.7178 20.1328 62.5596 20.0317 62.375 19.9614C62.1934 19.8882 61.9913 19.8516 61.7686 19.8516H59.2505V23.8682H61.7686C61.9913 23.8682 62.1934 23.833 62.375 23.7627C62.5596 23.6895 62.7178 23.5884 62.8497 23.4595C62.9815 23.3276 63.0826 23.1709 63.1529 22.9893C63.2261 22.8047 63.2627 22.5996 63.2627 22.374V21.3457ZM71.6071 22.4355H67.9992V21.2842H71.6071V22.4355ZM72.1212 25.0107H67.9992C67.841 25.0107 67.6681 24.9829 67.4806 24.9272C67.2931 24.8716 67.1188 24.7808 66.9577 24.6548C66.7995 24.5259 66.6662 24.3604 66.5578 24.1582C66.4523 23.9531 66.3996 23.7026 66.3996 23.4067V19.2847C66.3996 19.2056 66.4142 19.1309 66.4435 19.0605C66.4728 18.9902 66.5124 18.9287 66.5622 18.876C66.6149 18.8232 66.6764 18.7822 66.7467 18.7529C66.817 18.7236 66.8932 18.709 66.9752 18.709H72.1212V19.8516H67.5421V23.4067C67.5421 23.5562 67.5817 23.6704 67.6608 23.7495C67.7399 23.8286 67.8556 23.8682 68.008 23.8682H72.1212V25.0107ZM81.4631 25.0107H80.3118V21.2578L78.2859 24.8218C78.2361 24.9126 78.1658 24.9814 78.075 25.0283C77.9871 25.0752 77.8918 25.0986 77.7893 25.0986C77.6897 25.0986 77.5959 25.0752 77.5081 25.0283C77.4231 24.9814 77.3557 24.9126 77.3059 24.8218L75.2712 21.2578V25.0107H74.1287V19.1968C74.1287 19.0649 74.1667 18.9478 74.2429 18.8452C74.322 18.7427 74.4246 18.6738 74.5505 18.6387C74.6121 18.624 74.6736 18.6196 74.7351 18.6255C74.7966 18.6284 74.8552 18.6416 74.9109 18.665C74.9695 18.6855 75.0222 18.7163 75.0691 18.7573C75.116 18.7954 75.1555 18.8423 75.1877 18.8979L77.7893 23.4199L80.3909 18.8979C80.4583 18.7866 80.5505 18.7075 80.6677 18.6606C80.7878 18.6138 80.9124 18.6064 81.0413 18.6387C81.1643 18.6738 81.2654 18.7427 81.3445 18.8452C81.4236 18.9478 81.4631 19.0649 81.4631 19.1968V25.0107ZM84.846 25.0107H83.7035V18.709H84.846V25.0107ZM93.2651 25.0107H92.1225V23.4639H88.1059V25.0107H86.9633V21.8599C86.9633 21.3999 87.0424 20.9766 87.2006 20.5898C87.3588 20.2031 87.5786 19.8706 87.8598 19.5923C88.1411 19.314 88.4736 19.0972 88.8574 18.9419C89.2412 18.7866 89.6601 18.709 90.1142 18.709H92.6894C92.7685 18.709 92.8432 18.7236 92.9135 18.7529C92.9838 18.7822 93.0454 18.8232 93.0981 18.876C93.1508 18.9287 93.1918 18.9902 93.2211 19.0605C93.2504 19.1309 93.2651 19.2056 93.2651 19.2847V25.0107ZM88.1059 22.3213H92.1225V19.8516H90.1142C90.0791 19.8516 90.0043 19.8574 89.8901 19.8691C89.7788 19.8779 89.6484 19.9028 89.499 19.9438C89.3525 19.9849 89.1972 20.0479 89.0332 20.1328C88.8691 20.2178 88.7182 20.335 88.5805 20.4844C88.4428 20.6338 88.3286 20.8213 88.2377 21.0469C88.1499 21.2695 88.1059 21.5405 88.1059 21.8599V22.3213Z" fill="white"/>
</svg>
